<svg xmlns="http://www.w3.org/2000/svg" width="24"  height="24" viewBox="0 0 24 24" data-svgs-path="sml/todoist_logo.svg">
  <path fill="red" fill-rule="even-odd" d="M 21 0 H 3 a 3 3 0 0 0 -3 3 v 3.7 L 4 9 c 0.4 0.2 0.8 0.2 1.1 0 l 8 -4.6 a 0.8 0.8 0 0 1 0.8 0 l 1 0.5 c 0.2 0.2 0.1 0.6 0 0.7 L 5.1 11 c -0.4 0.3 -0.7 0.3 -1.2 0 L 0 8.8 v 2 l 4 2.4 c 0.4 0.2 0.8 0.2 1.1 0 l 8 -4.6 a 0.8 0.8 0 0 1 0.8 0 l 1 0.5 c 0.2 0.1 0.1 0.5 0 0.6 l -9.7 5.6 c -0.4 0.2 -0.7 0.3 -1.2 0 A 857 857 0 0 1 0 13 v 2 l 4 2.3 c 0.4 0.2 0.8 0.2 1.1 0 l 8 -4.6 a 0.8 0.8 0 0 1 0.8 0 l 1 0.5 c 0.2 0.2 0.1 0.6 0 0.7 l -9.7 5.5 c -0.4 0.3 -0.7 0.3 -1.2 0 a 857 857 0 0 1 -4 -2.3 v 4 A 3 3 0 0 0 3 24 h 18 a 3 3 0 0 0 3 -3 V 3 a 3 3 0 0 0 -3 -3"></path>
</svg>